HIERARCHY
ROOT Hips
{
  OFFSET 363.916 89.4436 202.859
  CHANNELS 6 Xposition Yposition Zposition Zrotation Xrotation Yrotation
  JOINT RightUpLeg
  {
    OFFSET -9.22681 -1.41939 0.059526
    CHANNELS 3 Zrotation Xrotation Yrotation
    JOINT RightLeg
    {
      OFFSET 0.076897 -41.8891 0.179098
      CHANNELS 3 Zrotation Xrotation Yrotation
      JOINT RightFoot
      {
        OFFSET -0.0130714 -43.0092 0.527065
        CHANNELS 3 Zrotation Xrotation Yrotation
        End Site
        {
          OFFSET 0 -7.69 17.5
        }
      }
    }
  }
  JOINT LeftUpLeg
  {
    OFFSET 9.19333 -1.7604 -0.077889
    CHANNELS 3 Zrotation Xrotation Yrotation
    JOINT LeftLeg
    {
      OFFSET -0.0291634 -41.859 -0.15197
      CHANNELS 3 Zrotation Xrotation Yrotation
      JOINT LeftFoot
      {
        OFFSET 0.141288 -40.5593 0.458407
        CHANNELS 3 Zrotation Xrotation Yrotation
        End Site
        {
          OFFSET 0 -7.69 17.5
        }
      }
    }
  }
  JOINT Spine
  {
    OFFSET 0.215607 14.2961 0.04713
    CHANNELS 3 Zrotation Xrotation Yrotation
    JOINT Spine1
    {
      OFFSET 0.127345 9.70675 0.00151561
      CHANNELS 3 Zrotation Xrotation Yrotation
      JOINT Spine2
      {
        OFFSET 0.0493166 10.1169 -0.00299987
        CHANNELS 3 Zrotation Xrotation Yrotation
        JOINT Spine3
        {
          OFFSET 0.0599611 9.70888 0.0197622
          CHANNELS 3 Zrotation Xrotation Yrotation
          JOINT Neck
          {
            OFFSET 0.305156 10.372 0.0704915
            CHANNELS 3 Zrotation Xrotation Yrotation
            JOINT Head
            {
              OFFSET 0.288394 9.47974 0.0406202
              CHANNELS 3 Zrotation Xrotation Yrotation
              End Site
              {
                OFFSET 0 15.95 0
              }
            }
          }
          JOINT RightShoulder
          {
            OFFSET -3.14873 6.92098 0.0285763
            CHANNELS 3 Zrotation Xrotation Yrotation
            JOINT RightArm
            {
              OFFSET -12.7049 -0.00288304 0.0369593
              CHANNELS 3 Zrotation Xrotation Yrotation
              JOINT RightForeArm
              {
                OFFSET -26.4954 -0.160471 0.0134548
                CHANNELS 3 Zrotation Xrotation Yrotation
                JOINT RightHand
                {
                  OFFSET -26.0026 -0.0211725 -0.0218708
                  CHANNELS 3 Zrotation Xrotation Yrotation
                  JOINT RightHandThumb1
                  {
                    OFFSET -2.48905 0.190105 3.12053
                    CHANNELS 3 Zrotation Xrotation Yrotation
                    JOINT RightHandThumb2
                    {
                      OFFSET -3.68274 0 0
                      CHANNELS 3 Zrotation Xrotation Yrotation
                      JOINT RightHandThumb3
                      {
                        OFFSET -2.55832 0 0
                        CHANNELS 3 Zrotation Xrotation Yrotation
                        End Site
                        {
                          OFFSET -2.194 0 0
                        }
                      }
                    }
                  }
                  JOINT RightInHandIndex
                  {
                    OFFSET -3.22368 0.508421 1.97842
                    CHANNELS 3 Zrotation Xrotation Yrotation
                    JOINT RightHandIndex1
                    {
                      OFFSET -5.21684 -0.091368 0.999158
                      CHANNELS 3 Zrotation Xrotation Yrotation
                      JOINT RightHandIndex2
                      {
                        OFFSET -3.61937 0 0
                        CHANNELS 3 Zrotation Xrotation Yrotation
                        JOINT RightHandIndex3
                        {
                          OFFSET -2.0521 0 0
                          CHANNELS 3 Zrotation Xrotation Yrotation
                          End Site
                          {
                            OFFSET -1.805 0 0
                          }
                        }
                      }
                    }
                  }
                  JOINT RightInHandMiddle
                  {
                    OFFSET -3.38211 0.517263 0.756737
                    CHANNELS 3 Zrotation Xrotation Yrotation
                    JOINT RightHandMiddle1
                    {
                      OFFSET -5.17411 -0.084 0.313895
                      CHANNELS 3 Zrotation Xrotation Yrotation
                      JOINT RightHandMiddle2
                      {
                        OFFSET -3.94947 0 0
                        CHANNELS 3 Zrotation Xrotation Yrotation
                        JOINT RightHandMiddle3
                        {
                          OFFSET -2.47579 0 0
                          CHANNELS 3 Zrotation Xrotation Yrotation
                          End Site
                          {
                            OFFSET -1.975 0 0
                          }
                        }
                      }
                    }
                  }
                  JOINT RightInHandRing
                  {
                    OFFSET -3.36516 0.537895 -0.128947
                    CHANNELS 3 Zrotation Xrotation Yrotation
                    JOINT RightHandRing1
                    {
                      OFFSET -4.63474 -0.022105 -0.478947
                      CHANNELS 3 Zrotation Xrotation Yrotation
                      JOINT RightHandRing2
                      {
                        OFFSET -3.44238 0 0
                        CHANNELS 3 Zrotation Xrotation Yrotation
                        JOINT RightHandRing3
                        {
                          OFFSET -2.3881 0 0
                          CHANNELS 3 Zrotation Xrotation Yrotation
                          End Site
                          {
                            OFFSET -1.857 0 0
                          }
                        }
                      }
                    }
                  }
                  JOINT RightInHandPinky
                  {
                    OFFSET -3.16105 0.469368 -1.20179
                    CHANNELS 3 Zrotation Xrotation Yrotation
                    JOINT RightHandPinky1
                    {
                      OFFSET -4.14105 -0.022105 -1.09053
                      CHANNELS 3 Zrotation Xrotation Yrotation
                      JOINT RightHandPinky2
                      {
                        OFFSET -2.75653 0 0
                        CHANNELS 3 Zrotation Xrotation Yrotation
                        JOINT RightHandPinky3
                        {
                          OFFSET -1.74189 0 0
                          CHANNELS 3 Zrotation Xrotation Yrotation
                          End Site
                          {
                            OFFSET -1.645 0 0
                          }
                        }
                      }
                    }
                  }
                }
              }
            }
          }
          JOINT LeftShoulder
          {
            OFFSET 3.26342 6.92519 -0.0174379
            CHANNELS 3 Zrotation Xrotation Yrotation
            JOINT LeftArm
            {
              OFFSET 12.8742 -0.0269705 -0.0666419
              CHANNELS 3 Zrotation Xrotation Yrotation
              JOINT LeftForeArm
              {
                OFFSET 26.5114 0.000826062 -0.052783
                CHANNELS 3 Zrotation Xrotation Yrotation
                JOINT LeftHand
                {
                  OFFSET 25.9941 -0.0689373 0.00603348
                  CHANNELS 3 Zrotation Xrotation Yrotation
                  JOINT LeftHandThumb1
                  {
                    OFFSET 2.48905 0.190105 3.12053
                    CHANNELS 3 Zrotation Xrotation Yrotation
                    JOINT LeftHandThumb2
                    {
                      OFFSET 3.68274 0 0
                      CHANNELS 3 Zrotation Xrotation Yrotation
                      JOINT LeftHandThumb3
                      {
                        OFFSET 2.55832 0 0
                        CHANNELS 3 Zrotation Xrotation Yrotation
                        End Site
                        {
                          OFFSET 2.194 0 0
                        }
                      }
                    }
                  }
                  JOINT LeftInHandIndex
                  {
                    OFFSET 3.22368 0.508421 1.97842
                    CHANNELS 3 Zrotation Xrotation Yrotation
                    JOINT LeftHandIndex1
                    {
                      OFFSET 5.21684 -0.091368 0.999158
                      CHANNELS 3 Zrotation Xrotation Yrotation
                      JOINT LeftHandIndex2
                      {
                        OFFSET 3.61937 0 0
                        CHANNELS 3 Zrotation Xrotation Yrotation
                        JOINT LeftHandIndex3
                        {
                          OFFSET 2.0521 0 0
                          CHANNELS 3 Zrotation Xrotation Yrotation
                          End Site
                          {
                            OFFSET 1.805 0 0
                          }
                        }
                      }
                    }
                  }
                  JOINT LeftInHandMiddle
                  {
                    OFFSET 3.38211 0.517263 0.756737
                    CHANNELS 3 Zrotation Xrotation Yrotation
                    JOINT LeftHandMiddle1
                    {
                      OFFSET 5.17411 -0.084 0.313895
                      CHANNELS 3 Zrotation Xrotation Yrotation
                      JOINT LeftHandMiddle2
                      {
                        OFFSET 3.94947 0 0
                        CHANNELS 3 Zrotation Xrotation Yrotation
                        JOINT LeftHandMiddle3
                        {
                          OFFSET 2.47579 0 0
                          CHANNELS 3 Zrotation Xrotation Yrotation
                          End Site
                          {
                            OFFSET 1.975 0 0
                          }
                        }
                      }
                    }
                  }
                  JOINT LeftInHandRing
                  {
                    OFFSET 3.36516 0.537895 -0.128947
                    CHANNELS 3 Zrotation Xrotation Yrotation
                    JOINT LeftHandRing1
                    {
                      OFFSET 4.63474 -0.022105 -0.478947
                      CHANNELS 3 Zrotation Xrotation Yrotation
                      JOINT LeftHandRing2
                      {
                        OFFSET 3.44238 0 0
                        CHANNELS 3 Zrotation Xrotation Yrotation
                        JOINT LeftHandRing3
                        {
                          OFFSET 2.3881 0 0
                          CHANNELS 3 Zrotation Xrotation Yrotation
                          End Site
                          {
                            OFFSET 1.857 0 0
                          }
                        }
                      }
                    }
                  }
                  JOINT LeftInHandPinky
                  {
                    OFFSET 3.16105 0.469368 -1.20179
                    CHANNELS 3 Zrotation Xrotation Yrotation
                    JOINT LeftHandPinky1
                    {
                      OFFSET 4.14105 -0.022105 -1.09053
                      CHANNELS 3 Zrotation Xrotation Yrotation
                      JOINT LeftHandPinky2
                      {
                        OFFSET 2.75653 0 0
                        CHANNELS 3 Zrotation Xrotation Yrotation
                        JOINT LeftHandPinky3
                        {
                          OFFSET 1.74189 0 0
                          CHANNELS 3 Zrotation Xrotation Yrotation
                          End Site
                          {
                            OFFSET 1.645 0 0
                          }
                        }
                      }
                    }
                  }
                }
              }
            }
          }
        }
      }
    }
  }
}
MOTION
Frames: 3
Frame Time: 0.00833333
7.489702946352678055e+02 2.822349858515159626e-01 1.083625612322279136e-01 -1.741353460654973651e+00 -1.875573251375068473e+00 -2.274314941060772810e+00 -3.978972863108006242e-01 5.052312517283581883e+00 5.708373263089170369e-01 3.463823914704895479e-01 -2.173094068101105059e+00 6.168607751069975498e-01 -4.557898538597393023e-01 8.169140303055526520e-01 1.716635080776421463e+00 -9.927654638087397565e-01 5.503953860914955420e+00 1.251471978807207952e+00 -2.371248104675649504e+00 -2.422770505938927510e+00 1.103330770990900156e+00 7.980548901197608291e-01 -3.676104242008357836e-01 1.304315681322484988e+00 -2.294471172272605775e-01 1.651875385995434653e-01 2.268168802985627508e+00 -1.188104989605959401e-04 6.373296172000393611e-02 5.981291597780278302e-01 -3.127161847159007357e-02 1.245798907542278872e-01 1.017402401637137022e+00 -1.939758285024289737e-03 -5.967006299593118762e-02 -1.328275254115970916e-01 -2.580806846995615245e-01 -4.227102616807184021e-01 2.346692084458608107e+00 3.335540637583727097e-01 1.716863727502816739e-01 -4.080913594547737056e+00 -6.814198126752410989e-01 1.271469800023571350e+00 9.507766558479540109e-01 -8.120285604974702309e+00 -3.187585868728346483e-01 -3.841853043330849093e+00 -2.499710561308207346e+00 4.083539239594923487e+00 -3.825226803968796663e+00 6.968654994944949443e-01 3.436744814452227792e-02 -4.658647998667330370e+00 0.000000000000000000e+00 0.000000000000000000e+00 0.000000000000000000e+00 -1.336711145576017331e-15 -8.989670475436990790e-17 0.000000000000000000e+00 7.016194101897077925e-18 7.470883607412185152e-16 0.000000000000000000e+00 1.008271828813202431e-16 -3.326519289197933262e-16 8.562960804525464730e-16 0.000000000000000000e+00 0.000000000000000000e+00 0.000000000000000000e+00 0.000000000000000000e+00 6.538863743978092211e-17 -2.627024081974343219e-15 0.000000000000000000e+00 -1.932502596121172576e-15 -1.666686249856428889e-14 1.008271828813202431e-16 -3.326519289197933262e-16 8.562960804525464730e-16 0.000000000000000000e+00 2.510045734790845079e-16 6.421897700966449573e-17 0.000000000000000000e+00 1.200060171411163877e-16 -1.155037351501010426e-15 0.000000000000000000e+00 9.024209380305783860e-16 7.890065953347811274e-15 1.008271828813202431e-16 -3.326519289197933262e-16 8.562960804525464730e-16 0.000000000000000000e+00 0.000000000000000000e+00 0.000000000000000000e+00 0.000000000000000000e+00 5.429404894092518609e-16 -1.608821087146131376e-15 0.000000000000000000e+00 1.654071557301492808e-15 5.204247436029909758e-15 1.008271828813202431e-16 -3.326519289197933262e-16 8.562960804525464730e-16 0.000000000000000000e+00 0.000000000000000000e+00 0.000000000000000000e+00 0.000000000000000000e+00 -3.018147578021564053e-16 -1.043560470154142883e-15 0.000000000000000000e+00 2.160238426904858544e-16 2.973711023114820214e-15 -4.534134965051457300e-01 2.995599820572693028e-01 -1.270872266124979166e+00 -1.428001108378726514e+00 3.051722839243063701e-03 8.366811148370562057e-01 -1.312830401112831780e+01 -7.009450236684261704e+00 -1.271129250391674326e+01 2.202408783528402303e+00 -7.124676795234254900e-01 -2.554110789336060616e+00 0.000000000000000000e+00 0.000000000000000000e+00 0.000000000000000000e+00 -1.316149974515515852e-15 3.330071875074348416e-16 0.000000000000000000e+00 1.249919654789978473e-16 -1.226027857561400118e-15 0.000000000000000000e+00 2.542502036680073284e-16 -3.641342834564721347e-16 -1.699628015910154711e-15 0.000000000000000000e+00 0.000000000000000000e+00 0.000000000000000000e+00 0.000000000000000000e+00 -3.452018489683323730e-16 1.896206991464013280e-15 0.000000000000000000e+00 1.111774139345569535e-16 2.796544823989729306e-15 2.542502036680073284e-16 -3.641342834564721347e-16 -1.699628015910154711e-15 0.000000000000000000e+00 -1.419289743356968475e-15 3.571982137492204598e-15 0.000000000000000000e+00 -1.753942689467039427e-15 4.943691194313940543e-15 0.000000000000000000e+00 -6.832867219864402150e-16 4.333105620266180521e-15 2.542502036680073284e-16 -3.641342834564721347e-16 -1.699628015910154711e-15 0.000000000000000000e+00 0.000000000000000000e+00 0.000000000000000000e+00 0.000000000000000000e+00 -8.316612746054665576e-16 2.837140820359126993e-15 0.000000000000000000e+00 -2.849471535544146642e-15 4.842595840719390067e-15 2.542502036680073284e-16 -3.641342834564721347e-16 -1.699628015910154711e-15 0.000000000000000000e+00 0.000000000000000000e+00 0.000000000000000000e+00 0.000000000000000000e+00 -1.259968326590284959e-16 2.361680089060567767e-15 0.000000000000000000e+00 -1.377796305776390690e-16 3.978136438919421725e-15
7.489786087046743432e+02 2.836107364412407961e-01 1.123888010580539470e-01 -1.784985413683946920e+00 -2.001171421111888282e+00 -2.606154034162212252e+00 -2.280745516818162288e-01 5.301576099441704493e+00 6.772574223661812498e-01 3.842144596853431238e-01 -2.331090445154975654e+00 6.650294719316403036e-01 -5.659867546483029477e-01 1.019927905391701195e+00 2.094054493864851985e+00 -9.435773540971758022e-01 5.900281309912123184e+00 1.234285394604836883e+00 -2.670238768941112006e+00 -2.477909743046513569e+00 1.327912142219311642e+00 9.231887359930630588e-01 -4.535725361700714275e-01 1.534266009434838152e+00 -2.108892879969297418e-01 8.427312425509510263e-02 2.339751784131267165e+00 4.720305287989071119e-03 4.482848543898791671e-02 6.176725335835844266e-01 -2.331848734496560702e-02 9.419919153708086745e-02 1.047760588754227618e+00 -9.170250900101182406e-03 -6.628432741588513588e-02 -1.246565430029081684e-01 -2.793644128257971038e-01 -5.230749035147465031e-01 2.638048294561675000e+00 2.230162733013311971e-01 2.429536737102918065e-01 -4.105722723082955383e+00 -7.037895238798962394e-01 1.388772359049679439e+00 8.801687207162914861e-01 -8.107355610058954554e+00 -6.648530583632435986e-01 -3.566978095837246787e+00 -2.748667452847860737e+00 4.148002590458039762e+00 -3.471451465528056168e+00 8.838168915561621652e-01 3.123927179295971635e-01 -4.674414302873811877e+00 0.000000000000000000e+00 0.000000000000000000e+00 0.000000000000000000e+00 -1.982822194738292379e-15 -1.117564383865022783e-16 0.000000000000000000e+00 -1.639581397543516186e-16 6.350107139249277441e-16 0.000000000000000000e+00 3.374108843531636228e-16 -5.935786483892953432e-16 7.893139704599874326e-16 0.000000000000000000e+00 0.000000000000000000e+00 0.000000000000000000e+00 0.000000000000000000e+00 7.011035564484502068e-17 -2.593333102126456327e-15 0.000000000000000000e+00 -2.055552067884886484e-15 -1.708442926359509390e-14 3.374108843531636228e-16 -5.935786483892953432e-16 7.893139704599874326e-16 0.000000000000000000e+00 2.937015666173169916e-16 2.168323889930587970e-16 0.000000000000000000e+00 1.022487026339584640e-16 -8.160722951769068373e-16 0.000000000000000000e+00 1.081147757200736776e-15 8.328726056987909631e-15 3.374108843531636228e-16 -5.935786483892953432e-16 7.893139704599874326e-16 0.000000000000000000e+00 0.000000000000000000e+00 0.000000000000000000e+00 0.000000000000000000e+00 6.724198171369778688e-16 -1.296862242936851769e-15 0.000000000000000000e+00 1.645052552884684976e-15 5.701628025060471591e-15 3.374108843531636228e-16 -5.935786483892953432e-16 7.893139704599874326e-16 0.000000000000000000e+00 0.000000000000000000e+00 0.000000000000000000e+00 0.000000000000000000e+00 -2.884310420531944535e-16 -8.963178358838740082e-16 0.000000000000000000e+00 7.281737645537485546e-17 3.094796047939883080e-15 -6.617165645665255003e-01 2.578884060673519718e-01 -1.451343862441458743e+00 -1.226158627264169354e+00 -6.803725080160479000e-02 6.814389401720926109e-01 -1.286268873091290565e+01 -6.798506863223799712e+00 -1.288077076442997360e+01 2.273394692000279438e+00 -7.170707223868360014e-01 -2.761935947488521226e+00 0.000000000000000000e+00 0.000000000000000000e+00 0.000000000000000000e+00 -1.437399297003201212e-15 2.505201177722344733e-16 0.000000000000000000e+00 -1.152434204795304627e-17 -9.560035242829884574e-16 0.000000000000000000e+00 4.453581129447573601e-16 -3.519182537042595531e-16 -1.680837660527919662e-15 0.000000000000000000e+00 0.000000000000000000e+00 0.000000000000000000e+00 0.000000000000000000e+00 -1.140210593338707483e-16 1.805480268512926447e-15 0.000000000000000000e+00 4.815592960140099108e-18 2.785733416816427752e-15 4.453581129447573601e-16 -3.519182537042595531e-16 -1.680837660527919662e-15 0.000000000000000000e+00 -1.387039838508431841e-15 3.571337344821466432e-15 0.000000000000000000e+00 -1.446361865550947120e-15 4.771913162045441477e-15 0.000000000000000000e+00 -8.308131704499264287e-16 4.221922478039948989e-15 4.453581129447573601e-16 -3.519182537042595531e-16 -1.680837660527919662e-15 0.000000000000000000e+00 0.000000000000000000e+00 0.000000000000000000e+00 0.000000000000000000e+00 -9.516889621016943452e-16 2.639472348446512237e-15 0.000000000000000000e+00 -2.800805464476767372e-15 5.026703353449473776e-15 4.453581129447573601e-16 -3.519182537042595531e-16 -1.680837660527919662e-15 0.000000000000000000e+00 0.000000000000000000e+00 0.000000000000000000e+00 0.000000000000000000e+00 -1.549997983765477165e-16 2.412802741679542434e-15 0.000000000000000000e+00 -2.786618127837237791e-16 4.073085652823388479e-15
7.489907006969357326e+02 2.842381773135231882e-01 1.174628288462747916e-01 -1.819837282767646114e+00 -2.125259887690938765e+00 -2.945049192941773697e+00 -4.643062007967516114e-02 5.539009578050318794e+00 7.760448269413495748e-01 4.284533523882666506e-01 -2.488184464413294439e+00 7.103305916879606441e-01 -6.923322636854450929e-01 1.231812741932692523e+00 2.502965645510624615e+00 -8.799832872897772607e-01 6.297620186712895141e+00 1.209475895388872235e+00 -2.982607562647873412e+00 -2.525167136498987830e+00 1.559373673823001072e+00 1.056665318665337860e+00 -5.450434217146122862e-01 1.785002682802289353e+00 -1.868227585679262670e-01 -1.035541102913281261e-03 2.403141282299931181e+00 1.075898251089743921e-02 2.484891726841988169e-02 6.350895153689281036e-01 -1.328434735981074907e-02 6.194539621679095998e-02 1.074356239801530943e+00 -1.694587347396303220e-02 -7.332347387926131665e-02 -1.152418646892820198e-01 -2.986201723223552151e-01 -6.279130725287253023e-01 2.951312858385549909e+00 1.022601630900758091e-01 3.185267242024905632e-01 -4.117592265366340598e+00 -7.010349456955283776e-01 1.513123930344515422e+00 7.876939077328138916e-01 -8.052513255329509789e+00 -1.046959181381997395e+00 -3.221518104769222735e+00 -2.998622537763530715e+00 4.201659288692078498e+00 -3.070803199810234752e+00 1.113386982467579500e+00 5.697064380576052356e-01 -4.662240015103182422e+00 0.000000000000000000e+00 0.000000000000000000e+00 0.000000000000000000e+00 -2.512451676669461331e-15 -1.451211338548306138e-16 0.000000000000000000e+00 -2.651935398303886730e-16 5.272427812164157818e-16 0.000000000000000000e+00 4.800335105309063390e-16 -8.334758304987551854e-16 6.981001595222600324e-16 0.000000000000000000e+00 0.000000000000000000e+00 0.000000000000000000e+00 0.000000000000000000e+00 6.836338818111888379e-17 -2.565314879702423302e-15 0.000000000000000000e+00 -2.167467609855182623e-15 -1.741576577164558925e-14 4.800335105309063390e-16 -8.334758304987551854e-16 6.981001595222600324e-16 0.000000000000000000e+00 3.734688747483384201e-16 3.391641838312391729e-16 0.000000000000000000e+00 8.960254629273842699e-17 -4.872175344466605259e-16 0.000000000000000000e+00 1.243063995211062298e-15 8.700294093555090879e-15 4.800335105309063390e-16 -8.334758304987551854e-16 6.981001595222600324e-16 0.000000000000000000e+00 0.000000000000000000e+00 0.000000000000000000e+00 0.000000000000000000e+00 7.795530561867793638e-16 -1.009243795773970282e-15 0.000000000000000000e+00 1.609518266044866866e-15 6.127280501181759736e-15 4.800335105309063390e-16 -8.334758304987551854e-16 6.981001595222600324e-16 0.000000000000000000e+00 0.000000000000000000e+00 0.000000000000000000e+00 0.000000000000000000e+00 -2.809539699316930616e-16 -7.114408086949710670e-16 0.000000000000000000e+00 -1.106603105073456616e-16 3.217193921387875142e-15 -8.713904209408598334e-01 2.210811869723594836e-01 -1.625244546386686251e+00 -1.004405157901628431e+00 -1.400424325268464776e-01 5.068348875682811006e-01 -1.252744576734461113e+01 -6.546123235474872182e+00 -1.300372179043056775e+01 2.358124095530635955e+00 -7.162147871897618367e-01 -2.985092552722855785e+00 0.000000000000000000e+00 0.000000000000000000e+00 0.000000000000000000e+00 -1.514876493607300304e-15 1.050449800718382027e-16 0.000000000000000000e+00 -1.494013598234980657e-16 -6.927984943391356335e-16 0.000000000000000000e+00 5.296139207931957211e-16 -3.053268636543127954e-16 -1.687085375760616738e-15 0.000000000000000000e+00 0.000000000000000000e+00 0.000000000000000000e+00 0.000000000000000000e+00 1.497887168866740554e-16 1.651613000208187180e-15 0.000000000000000000e+00 -1.427326981957647541e-16 2.746743551385707831e-15 5.296139207931957211e-16 -3.053268636543127954e-16 -1.687085375760616738e-15 0.000000000000000000e+00 -1.390145978078454596e-15 3.536666453314952268e-15 0.000000000000000000e+00 -1.071216166738627920e-15 4.598150143825316649e-15 0.000000000000000000e+00 -9.147629582227758166e-16 4.108771488204462288e-15 5.296139207931957211e-16 -3.053268636543127954e-16 -1.687085375760616738e-15 0.000000000000000000e+00 0.000000000000000000e+00 0.000000000000000000e+00 0.000000000000000000e+00 -1.037511574924046977e-15 2.434617554603635018e-15 0.000000000000000000e+00 -2.729248472589257446e-15 5.185931245929771986e-15 5.296139207931957211e-16 -3.053268636543127954e-16 -1.687085375760616738e-15 0.000000000000000000e+00 0.000000000000000000e+00 0.000000000000000000e+00 0.000000000000000000e+00 -1.766085846128169434e-16 2.431238840789882728e-15 0.000000000000000000e+00 -4.227192630681227131e-16 4.157212804497204364e-15
